<svg xmlns="http://www.w3.org/2000/svg" width="194.358" height="59.327" version="1.0" viewBox="0 0 145.768 44.495"><path fill="#2a1e5c" d="M126.377 20.464V36.45a6.996 6.996 0 0 1-1.297 4.109c-.867 1.238-2.039 2.203-3.515 2.89-1.47.696-3.07 1.047-4.797 1.047-1.325 0-2.48-.164-3.469-.484-.98-.312-1.773-.668-2.375-1.062-.594-.387-1.309-.918-2.14-1.594l3-3.516c.726.688 1.452 1.223 2.171 1.61.727.382 1.64.578 2.735.578 1.289 0 2.375-.324 3.25-.969.882-.648 1.328-1.543 1.328-2.688v-2.265c-.492.836-1.246 1.508-2.266 2.015-1.012.508-2.246.766-3.703.766a7.71 7.71 0 0 1-4.016-1.11 8.213 8.213 0 0 1-2.937-3.077c-.73-1.301-1.094-2.743-1.094-4.329 0-1.613.379-3.085 1.14-4.421.77-1.344 1.786-2.395 3.048-3.157 1.257-.757 2.582-1.14 3.968-1.14 1.313 0 2.477.195 3.5.578 1.032.375 1.817.87 2.36 1.484l.39-1.25zm-9.547 12.25c2.051 0 3.531-.8 4.438-2.406v-3.922c-.344-.781-.914-1.398-1.703-1.86-.793-.468-1.704-.702-2.735-.702-1.242 0-2.289.418-3.14 1.25-.856.836-1.282 1.882-1.282 3.14 0 1.274.426 2.34 1.282 3.203.851.868 1.898 1.297 3.14 1.297zM127.659 28.261c0-1.633.379-3.098 1.14-4.39.77-1.29 1.86-2.305 3.266-3.047 1.407-.75 3-1.125 4.782-1.125 1.77 0 3.332.375 4.687 1.125 1.352.742 2.395 1.757 3.125 3.046.738 1.293 1.11 2.758 1.11 4.391 0 1.625-.372 3.102-1.11 4.422-.73 1.312-1.773 2.344-3.125 3.094-1.355.738-2.945 1.11-4.766 1.11-1.78 0-3.367-.345-4.75-1.032-1.375-.695-2.449-1.692-3.218-2.985-.762-1.289-1.141-2.828-1.141-4.609Zm5.156.031c0 1.274.364 2.328 1.094 3.172.727.836 1.656 1.25 2.781 1.25 1.176 0 2.125-.41 2.844-1.234.719-.832 1.078-1.895 1.078-3.188 0-1.289-.36-2.347-1.078-3.172-.719-.832-1.668-1.25-2.844-1.25-1.125 0-2.054.422-2.781 1.266-.73.836-1.094 1.887-1.094 3.156zm0 0"/><path fill="#ff390e" d="M116.67 22.906v-1.484h.297v12.203h-.297V28.25c0 .387-.153.89-.453 1.516-.305.617-.75 1.23-1.344 1.843-.594.606-1.324 1.102-2.188 1.485-.867.386-1.859.562-2.984.531-1.055-.063-1.98-.258-2.781-.594-.805-.343-1.606-.687-2.406-1.031-.805-.352-1.762-.582-2.875-.688-1.188-.125-2.106-.023-2.75.297-.637.325-1.075.696-1.313 1.11-.242.418-.36.718-.36.906h-.296c-.418-.926-.625-2.063-.625-3.406 0-1.54.316-2.938.953-4.188a15.641 15.641 0 0 1 2.484-3.5 54.174 54.174 0 0 1 3.219-3.203 45.303 45.303 0 0 0 3.219-3.265 17.164 17.164 0 0 0 2.515-3.688c.676-1.332 1.032-2.832 1.063-4.5 0-1.895-.406-3.547-1.219-4.953-.812-1.406-1.828-2.27-3.047-2.594-.968.031-1.933.211-2.89.531-.356.157-.543.454-.563.891-.012.43.29.805.906 1.125a5.298 5.298 0 0 1 2.125 1.875 4.87 4.87 0 0 1 .844 2.781c0 1.418-.508 2.633-1.515 3.64-1 1-2.211 1.5-3.625 1.5-1.407 0-2.618-.5-3.625-1.5-1.012-1.007-1.516-2.222-1.516-3.64 0-1.25.351-2.336 1.062-3.265.707-.926 1.618-1.707 2.735-2.344a13.871 13.871 0 0 1 3.578-1.438c1.27-.32 2.445-.484 3.531-.484 2.145 0 4.098.418 5.86 1.25 1.769.824 3.175 1.945 4.218 3.36 1.04 1.406 1.563 2.976 1.563 4.702 0 1.575-.371 2.922-1.11 4.047-.742 1.118-1.718 2.086-2.937 2.907a27.828 27.828 0 0 1-4.016 2.203c-1.449.656-2.918 1.293-4.406 1.906a37.414 37.414 0 0 0-4.14 1.969c-1.262.699-2.31 1.527-3.141 2.484.601-.539 1.328-.988 2.172-1.344.851-.351 1.812-.547 2.875-.578a10.849 10.849 0 0 1 3.672.532c1.164.386 2.289.773 3.375 1.156 1.093.386 2.132.578 3.125.578 1.093 0 1.867-.297 2.328-.89.468-.595.703-1.052.703-1.376zm0 0"/><path fill="#2a1e5c" d="M24.688 36.008 18.28 20.055l-7.453 16.031L0 8.102h6.219l5.297 15.578L15.625 13.4 13.5 8.102h5.266l6.03 14.953 4.579-14.953h5.703ZM47.248 18.086c1.508 0 2.77.454 3.781 1.36 1.02.898 1.54 2.039 1.563 3.422v11.968h-5.125V24.774c-.074-1.563-.856-2.344-2.344-2.344-1.168 0-2.105.555-2.812 1.656-.711 1.094-1.063 2.508-1.063 4.235v6.515h-5.11V5.977h5v15.406a6.3 6.3 0 0 1 2.423-2.422c1.039-.582 2.27-.875 3.687-.875zM63.088 30.93c1.02 0 2.082-.351 3.188-1.062l2.265 3.797c-.886.492-1.82.882-2.797 1.171-.968.29-1.89.438-2.765.438-1.906 0-3.547-.36-4.922-1.078-1.375-.719-2.418-1.727-3.125-3.031-.711-1.313-1.063-2.805-1.063-4.485 0-1.562.407-3 1.22-4.312.82-1.32 1.937-2.364 3.343-3.125 1.414-.77 2.969-1.157 4.656-1.157 2.29 0 4.172.672 5.64 2.016 1.477 1.336 2.438 3.246 2.876 5.734L59.9 29.571c.78.906 1.843 1.36 3.187 1.36zm-.406-8.86c-1.149 0-2.063.391-2.75 1.173-.68.78-1.016 1.828-1.016 3.14v.328l7.016-2.375c-.512-1.507-1.594-2.265-3.25-2.265zM77.6 22.508a7.775 7.775 0 0 1 1.813-2.297c.77-.687 1.555-1.218 2.36-1.593.8-.383 1.437-.578 1.906-.578l-.266 5.125a4.86 4.86 0 0 0-.61-.032c-1.03 0-1.937.274-2.718.813a5.287 5.287 0 0 0-1.781 2.062 5.7 5.7 0 0 0-.625 2.578v6.25H72.6V18.852h4.609ZM92.82 30.93c1.02 0 2.083-.351 3.188-1.062l2.266 3.797c-.887.492-1.82.882-2.797 1.171-.969.29-1.89.438-2.766.438-1.906 0-3.547-.36-4.922-1.078-1.375-.719-2.418-1.727-3.125-3.031-.71-1.313-1.062-2.805-1.062-4.485 0-1.562.406-3 1.219-4.312.82-1.32 1.937-2.364 3.343-3.125 1.415-.77 2.97-1.157 4.657-1.157 2.289 0 4.172.672 5.64 2.016 1.477 1.336 2.438 3.246 2.875 5.734l-11.703 3.735c.781.906 1.844 1.36 3.188 1.36zm-.406-8.86c-1.148 0-2.062.391-2.75 1.173-.68.78-1.015 1.828-1.015 3.14v.328l7.015-2.375c-.511-1.507-1.593-2.265-3.25-2.265zm0 0"/></svg>