<svg height="181.246" version="1.0" viewBox="0 0 98.727 135.934" width="131.637" xmlns="http://www.w3.org/2000/svg">
  <g transform="translate(-144.234 -75.969)"><path
    d="M189.734 75.96c-34.882 0-56.757 37.688-39.445 67.978l.098.175 39.039 67.61a.325.325 0 0 0 .129.132.374.374 0 0 0 .36 0 .31.31 0 0 0 .132-.132l39.035-67.61.102-.175c17.308-30.29-4.563-67.977-39.45-67.977zm.043 68.145a21.77 21.77 0 0 1-6.336-.94 21.84 21.84 0 0 1-7.512-4.016 20.481 20.481 0 0 1-1.585-1.438 21.28 21.28 0 0 1-2.715-3.309 20.75 20.75 0 0 1-1.102-1.836 20.428 20.428 0 0 1-.918-1.937 22.915 22.915 0 0 1-.722-2.016 22.127 22.127 0 0 1-.52-2.078c-.14-.7-.242-1.406-.312-2.117a21.76 21.76 0 0 1 0-4.281c.066-.711.172-1.418.312-2.117a21.718 21.718 0 0 1 1.242-4.094c.274-.66.579-1.309.914-1.938a22.068 22.068 0 0 1 2.379-3.559 22.116 22.116 0 0 1 3.024-3.027 21.763 21.763 0 0 1 1.722-1.273 21.946 21.946 0 0 1 5.79-2.742 22.127 22.127 0 0 1 2.078-.52c.699-.14 1.406-.242 2.117-.312a21.76 21.76 0 0 1 2.14-.106 21.44 21.44 0 0 1 4.258.418 21.715 21.715 0 0 1 4.094 1.242 21.4 21.4 0 0 1 1.938.914 21.952 21.952 0 0 1 3.559 2.375c.554.457 1.081.934 1.585 1.442a22 22 0 0 1 2.719 3.305 21.838 21.838 0 0 1 3.574 9.988 21.76 21.76 0 0 1 0 4.281c-.066.711-.172 1.418-.312 2.117a21.69 21.69 0 0 1-3.254 7.875 22.174 22.174 0 0 1-2.715 3.313 22.003 22.003 0 0 1-3.309 2.719 21.907 21.907 0 0 1-3.777 2.016c-.66.276-1.332.515-2.016.722a21.352 21.352 0 0 1-4.199.836c-.71.07-1.426.105-2.14.105zm0 0"
    fill="#ff390e"/></g>
  <g transform="translate(-144.234 -75.969)">
    <g><path d="M163.504 92.215h53.129v53.125h-53.13zm0 0" fill="#ff390e"/></g>
  </g><path
    d="M73-33.703v-4.688h.906V0H73v-16.922c0 1.211-.48 2.797-1.438 4.766-.96 1.96-2.37 3.898-4.234 5.812-1.867 1.918-4.156 3.48-6.875 4.688C57.734-.446 54.61.102 51.078 0c-3.324-.195-6.246-.82-8.766-1.875a550.577 550.577 0 0 1-7.562-3.25c-2.512-1.113-5.531-1.82-9.063-2.125-3.73-.406-6.605-.102-8.625.906-2.011 1-3.398 2.157-4.156 3.469-.75 1.313-1.125 2.273-1.125 2.875h-.906C9.57-2.914 8.922-6.492 8.922-10.734c0-4.832 1.004-9.211 3.015-13.141 2.02-3.926 4.614-7.602 7.782-11.031a174.495 174.495 0 0 1 10.125-10.047 138.742 138.742 0 0 0 10.125-10.281 54.46 54.46 0 0 0 7.937-11.625C50.02-71.047 51.13-75.758 51.234-81c0-5.945-1.289-11.133-3.859-15.563-2.563-4.437-5.762-7.16-9.594-8.171-3.023.105-6.043.664-9.062 1.671-1.117.5-1.7 1.434-1.75 2.797-.043 1.356.89 2.54 2.797 3.547 2.726 1.313 4.972 3.281 6.734 5.906 1.758 2.618 2.64 5.532 2.64 8.75 0 4.438-1.59 8.247-4.765 11.422-3.168 3.168-6.969 4.75-11.406 4.75-4.43 0-8.23-1.582-11.407-4.75-3.18-3.175-4.765-6.984-4.765-11.421 0-3.926 1.11-7.348 3.328-10.266 2.219-2.926 5.086-5.395 8.61-7.406A44.347 44.347 0 0 1 30-104.266c3.977-1.007 7.68-1.515 11.11-1.515 6.75 0 12.894 1.312 18.437 3.937 5.539 2.617 9.945 6.14 13.219 10.578 3.27 4.43 4.906 9.36 4.906 14.797 0 4.938-1.164 9.172-3.484 12.703-2.313 3.524-5.387 6.57-9.22 9.141-3.823 2.563-8.027 4.883-12.609 6.953a432.628 432.628 0 0 1-13.906 5.969c-4.68 1.906-9.008 3.969-12.984 6.187-3.98 2.22-7.282 4.84-9.907 7.86 1.915-1.707 4.208-3.114 6.876-4.219 2.675-1.113 5.675-1.723 9-1.828 4.03-.102 7.882.453 11.562 1.672a530.1 530.1 0 0 1 10.64 3.625c3.426 1.21 6.704 1.812 9.829 1.812 3.426 0 5.867-.93 7.328-2.797C72.266-31.254 73-32.69 73-33.703Zm0 0"
    fill="#2a1e5c"
    fill-opacity="1"
    transform="translate(21.056 125.01)"/>
  <g fill="#fff" fill-opacity="1" transform="translate(-144.234 -75.969)">
    <g fill="#fff" fill-opacity="1">
      <g fill="#fff" fill-opacity="1"><path
        d="M187.254 210.57a60.244 60.244 0 0 1-4.133-6.28 130.812 130.812 0 0 1-6.039-12.102c-1.098-2.508-.8-3.43 1.617-4.766 2.297-1.266 4.867-1.457 7.387-1.723 2.836-.273 5.676-.3 8.516-.082 2.136.133 4.16.68 6.074 1.64 2.379 1.204 3.023 2.599 2.254 5.18-.754 2.52-2.012 4.833-3.223 7.153-1.926 3.68-4.352 7.05-6.64 10.504-1.465 2.207-3.82 2.43-5.813.476zm0 0"
        fill="#fff"
        fill-opacity="1"/></g>
    </g>
  </g>
</svg>
